<?xml version="1.0" encoding="UTF-8" standalone="no"?>
<!DOCTYPE svg PUBLIC "-//W3C//DTD SVG 1.1//EN"
 "http://www.w3.org/Graphics/SVG/1.1/DTD/svg11.dtd">
<!-- Generated by graphviz version 2.43.0 (0)
 -->
<!-- Title: G Pages: 1 -->
<svg width="670pt" height="638pt"
 viewBox="0.00 0.00 670.00 638.00" xmlns="http://www.w3.org/2000/svg" xmlns:xlink="http://www.w3.org/1999/xlink">
<g id="graph0" class="graph" transform="scale(1 1) rotate(0) translate(4 634)">
<title>G</title>
<polygon fill="white" stroke="transparent" points="-4,4 -4,-634 666,-634 666,4 -4,4"/>
<g id="clust1" class="cluster">
<title>cluster_root</title>
<g id="a_clust1"><a xlink:title="eventq_index=0&#10;full_system=false&#10;sim_quantum=0&#10;time_sync_enable=false&#10;time_sync_period=100000000000&#10;time_sync_spin_threshold=100000000">
<path fill="#bab6ae" stroke="#000000" d="M20,-8C20,-8 642,-8 642,-8 648,-8 654,-14 654,-20 654,-20 654,-610 654,-610 654,-616 648,-622 642,-622 642,-622 20,-622 20,-622 14,-622 8,-616 8,-610 8,-610 8,-20 8,-20 8,-14 14,-8 20,-8"/>
<text text-anchor="middle" x="331" y="-606.8" font-family="Arial" font-size="14.00" fill="#000000">root </text>
<text text-anchor="middle" x="331" y="-591.8" font-family="Arial" font-size="14.00" fill="#000000">: Root</text>
</a>
</g>
</g>
<g id="clust2" class="cluster">
<title>cluster_system</title>
<g id="a_clust2"><a xlink:title="auto_unlink_shared_backstore=false&#10;cache_line_size=64&#10;eventq_index=0&#10;exit_on_work_items=true&#10;init_param=0&#10;m5ops_base=0&#10;mem_mode=atomic&#10;mem_ranges=0:536870912&#10;memories=system.mem_ctrls.dram&#10;mmap_using_noreserve=false&#10;multi_thread=false&#10;&#10;um_work_ids=16&#10;&#13;eadfile=&#10;&#13;edirect_paths=system.redirect_paths0 system.redirect_paths1 system.redirect_paths2&#10;shadow_rom_ranges=&#10;shared_backstore=&#10;symbolfile=&#10;thermal_components=&#10;thermal_model=Null&#10;work_begin_ckpt_count=0&#10;work_begin_cpu_id_exit=&#45;1&#10;work_begin_exit_count=0&#10;work_cpus_ckpt_count=0&#10;work_end_ckpt_count=0&#10;work_end_exit_count=0&#10;work_item_id=&#45;1&#10;workload=system.workload">
<path fill="#e4e7eb" stroke="#000000" d="M28,-16C28,-16 634,-16 634,-16 640,-16 646,-22 646,-28 646,-28 646,-564 646,-564 646,-570 640,-576 634,-576 634,-576 28,-576 28,-576 22,-576 16,-570 16,-564 16,-564 16,-28 16,-28 16,-22 22,-16 28,-16"/>
<text text-anchor="middle" x="331" y="-560.8" font-family="Arial" font-size="14.00" fill="#000000">system </text>
<text text-anchor="middle" x="331" y="-545.8" font-family="Arial" font-size="14.00" fill="#000000">: System</text>
</a>
</g>
</g>
<g id="clust4" class="cluster">
<title>cluster_system_cpu</title>
<g id="a_clust4"><a xlink:title="branchPred=Null&#10;checker=Null&#10;clk_domain=system.cpu_clk_domain&#10;cpu_id=0&#10;decoder=system.cpu.decoder&#10;do_checkpoint_insts=true&#10;do_statistics_insts=true&#10;eventq_index=0&#10;function_trace=false&#10;function_trace_start=0&#10;interrupts=system.cpu.interrupts&#10;isa=system.cpu.isa&#10;max_insts_all_threads=0&#10;max_insts_any_thread=0&#10;mmu=system.cpu.mmu&#10;&#10;umThreads=1&#10;power_gating_on_idle=false&#10;power_model=&#10;power_state=system.cpu.power_state&#10;progress_interval=0&#10;pwr_gating_latency=300&#10;simpoint_start_insts=&#10;simulate_data_stalls=false&#10;simulate_inst_stalls=false&#10;socket_id=0&#10;switched_out=false&#10;syscallRetryLatency=10000&#10;system=system&#10;tracer=system.cpu.tracer&#10;width=1&#10;workload=system.cpu.workload">
<path fill="#bbc6d9" stroke="#000000" d="M128,-24C128,-24 626,-24 626,-24 632,-24 638,-30 638,-36 638,-36 638,-157 638,-157 638,-163 632,-169 626,-169 626,-169 128,-169 128,-169 122,-169 116,-163 116,-157 116,-157 116,-36 116,-36 116,-30 122,-24 128,-24"/>
<text text-anchor="middle" x="377" y="-153.8" font-family="Arial" font-size="14.00" fill="#000000">cpu </text>
<text text-anchor="middle" x="377" y="-138.8" font-family="Arial" font-size="14.00" fill="#000000">: X86AtomicSimpleCPU</text>
</a>
</g>
</g>
<g id="clust17" class="cluster">
<title>cluster_system_cpu_interrupts</title>
<g id="a_clust17"><a xlink:title="clk_domain=system.cpu.interrupts.clk_domain&#10;eventq_index=0&#10;int_latency=1000&#10;pio_latency=100000&#10;system=system">
<path fill="#bab6ae" stroke="#000000" d="M136,-32C136,-32 413,-32 413,-32 419,-32 425,-38 425,-44 425,-44 425,-111 425,-111 425,-117 419,-123 413,-123 413,-123 136,-123 136,-123 130,-123 124,-117 124,-111 124,-111 124,-44 124,-44 124,-38 130,-32 136,-32"/>
<text text-anchor="middle" x="274.5" y="-107.8" font-family="Arial" font-size="14.00" fill="#000000">interrupts </text>
<text text-anchor="middle" x="274.5" y="-92.8" font-family="Arial" font-size="14.00" fill="#000000">: X86LocalApic</text>
</a>
</g>
</g>
<g id="clust23" class="cluster">
<title>cluster_system_membus</title>
<g id="a_clust23"><a xlink:title="clk_domain=system.clk_domain&#10;eventq_index=0&#10;forward_latency=4&#10;frontend_latency=3&#10;header_latency=1&#10;max_outstanding_snoops=512&#10;max_routing_table_size=512&#10;point_of_coherency=true&#10;point_of_unification=true&#10;power_model=&#10;power_state=system.membus.power_state&#10;&#13;esponse_latency=2&#10;snoop_filter=system.membus.snoop_filter&#10;snoop_response_latency=4&#10;system=system&#10;use_default_range=false&#10;width=16">
<path fill="#6f798c" stroke="#000000" d="M143,-177C143,-177 379,-177 379,-177 385,-177 391,-183 391,-189 391,-189 391,-256 391,-256 391,-262 385,-268 379,-268 379,-268 143,-268 143,-268 137,-268 131,-262 131,-256 131,-256 131,-189 131,-189 131,-183 137,-177 143,-177"/>
<text text-anchor="middle" x="261" y="-252.8" font-family="Arial" font-size="14.00" fill="#000000">membus </text>
<text text-anchor="middle" x="261" y="-237.8" font-family="Arial" font-size="14.00" fill="#000000">: SystemXBar</text>
</a>
</g>
</g>
<g id="clust26" class="cluster">
<title>cluster_system_monitor</title>
<g id="a_clust26"><a xlink:title="bandwidth_bins=20&#10;burst_length_bins=20&#10;disable_addr_dists=true&#10;disable_bandwidth_hists=false&#10;disable_burst_length_hists=false&#10;disable_itt_dists=false&#10;disable_latency_hists=false&#10;disable_outstanding_hists=false&#10;disable_transaction_hists=false&#10;eventq_index=0&#10;itt_bins=20&#10;itt_max_bin=100000&#10;&#10;atency_bins=20&#10;outstanding_bins=20&#10;&#13;ead_addr_mask=18446744073709551615&#10;sample_period=1000000000&#10;system=system&#10;transaction_bins=20&#10;write_addr_mask=18446744073709551615">
<path fill="#bab6ae" stroke="#000000" d="M256,-308C256,-308 478,-308 478,-308 484,-308 490,-314 490,-320 490,-320 490,-387 490,-387 490,-393 484,-399 478,-399 478,-399 256,-399 256,-399 250,-399 244,-393 244,-387 244,-387 244,-320 244,-320 244,-314 250,-308 256,-308"/>
<text text-anchor="middle" x="367" y="-383.8" font-family="Arial" font-size="14.00" fill="#000000">monitor </text>
<text text-anchor="middle" x="367" y="-368.8" font-family="Arial" font-size="14.00" fill="#000000">: CommMonitor</text>
</a>
</g>
</g>
<g id="clust28" class="cluster">
<title>cluster_system_to_monitor_bus</title>
<g id="a_clust28"><a xlink:title="clk_domain=system.cpu_clk_domain&#10;eventq_index=0&#10;forward_latency=0&#10;frontend_latency=1&#10;header_latency=1&#10;max_outstanding_snoops=512&#10;max_routing_table_size=512&#10;point_of_coherency=false&#10;point_of_unification=true&#10;power_model=&#10;power_state=system.to_monitor_bus.power_state&#10;&#13;esponse_latency=1&#10;snoop_filter=system.to_monitor_bus.snoop_filter&#10;snoop_response_latency=1&#10;system=system&#10;use_default_range=false&#10;width=32">
<path fill="#6f798c" stroke="#000000" d="M316,-439C316,-439 552,-439 552,-439 558,-439 564,-445 564,-451 564,-451 564,-518 564,-518 564,-524 558,-530 552,-530 552,-530 316,-530 316,-530 310,-530 304,-524 304,-518 304,-518 304,-451 304,-451 304,-445 310,-439 316,-439"/>
<text text-anchor="middle" x="434" y="-514.8" font-family="Arial" font-size="14.00" fill="#000000">to_monitor_bus </text>
<text text-anchor="middle" x="434" y="-499.8" font-family="Arial" font-size="14.00" fill="#000000">: L2XBar</text>
</a>
</g>
</g>
<g id="clust31" class="cluster">
<title>cluster_system_mem_ctrls</title>
<g id="a_clust31"><a xlink:title="clk_domain=system.clk_domain&#10;command_window=10000&#10;dram=system.mem_ctrls.dram&#10;eventq_index=0&#10;mem_sched_policy=frfcfs&#10;min_reads_per_switch=16&#10;min_writes_per_switch=16&#10;power_model=&#10;power_state=system.mem_ctrls.power_state&#10;qos_policy=Null&#10;qos_priorities=1&#10;qos_priority_escalation=false&#10;qos_q_policy=fifo&#10;qos_requestors= &#160;&#160;&#160;&#160;&#160;&#160;&#160;&#160;&#160;&#160;&#160;&#160;&#160;&#160;&#10;qos_syncro_scheduler=false&#10;qos_turnaround_policy=Null&#10;static_backend_latency=10000&#10;static_frontend_latency=10000&#10;system=system&#10;write_high_thresh_perc=85&#10;write_low_thresh_perc=50">
<path fill="#bab6ae" stroke="#000000" d="M36,-32C36,-32 96,-32 96,-32 102,-32 108,-38 108,-44 108,-44 108,-111 108,-111 108,-117 102,-123 96,-123 96,-123 36,-123 36,-123 30,-123 24,-117 24,-111 24,-111 24,-44 24,-44 24,-38 30,-32 36,-32"/>
<text text-anchor="middle" x="66" y="-107.8" font-family="Arial" font-size="14.00" fill="#000000">mem_ctrls </text>
<text text-anchor="middle" x="66" y="-92.8" font-family="Arial" font-size="14.00" fill="#000000">: MemCtrl</text>
</a>
</g>
</g>
<!-- system_system_port -->
<g id="node1" class="node">
<title>system_system_port</title>
<path fill="#b6b8bc" stroke="#000000" d="M155.5,-316.5C155.5,-316.5 222.5,-316.5 222.5,-316.5 228.5,-316.5 234.5,-322.5 234.5,-328.5 234.5,-328.5 234.5,-340.5 234.5,-340.5 234.5,-346.5 228.5,-352.5 222.5,-352.5 222.5,-352.5 155.5,-352.5 155.5,-352.5 149.5,-352.5 143.5,-346.5 143.5,-340.5 143.5,-340.5 143.5,-328.5 143.5,-328.5 143.5,-322.5 149.5,-316.5 155.5,-316.5"/>
<text text-anchor="middle" x="189" y="-330.8" font-family="Arial" font-size="14.00" fill="#000000">system_port</text>
</g>
<!-- system_membus_cpu_side_ports -->
<g id="node7" class="node">
<title>system_membus_cpu_side_ports</title>
<path fill="#586070" stroke="#000000" d="M287,-185.5C287,-185.5 371,-185.5 371,-185.5 377,-185.5 383,-191.5 383,-197.5 383,-197.5 383,-209.5 383,-209.5 383,-215.5 377,-221.5 371,-221.5 371,-221.5 287,-221.5 287,-221.5 281,-221.5 275,-215.5 275,-209.5 275,-209.5 275,-197.5 275,-197.5 275,-191.5 281,-185.5 287,-185.5"/>
<text text-anchor="middle" x="329" y="-199.8" font-family="Arial" font-size="14.00" fill="#000000">cpu_side_ports</text>
</g>
<!-- system_system_port&#45;&gt;system_membus_cpu_side_ports -->
<g id="edge1" class="edge">
<title>system_system_port&#45;&gt;system_membus_cpu_side_ports</title>
<path fill="none" stroke="black" d="M210,-316.45C225.72,-303.49 247.59,-285.05 266,-268 279.46,-255.53 293.91,-241.05 305.57,-229.07"/>
<polygon fill="black" stroke="black" points="308.36,-231.22 312.8,-221.6 303.33,-226.36 308.36,-231.22"/>
</g>
<!-- system_cpu_icache_port -->
<g id="node2" class="node">
<title>system_cpu_icache_port</title>
<path fill="#959ead" stroke="#000000" d="M556,-40.5C556,-40.5 618,-40.5 618,-40.5 624,-40.5 630,-46.5 630,-52.5 630,-52.5 630,-64.5 630,-64.5 630,-70.5 624,-76.5 618,-76.5 618,-76.5 556,-76.5 556,-76.5 550,-76.5 544,-70.5 544,-64.5 544,-64.5 544,-52.5 544,-52.5 544,-46.5 550,-40.5 556,-40.5"/>
<text text-anchor="middle" x="587" y="-54.8" font-family="Arial" font-size="14.00" fill="#000000">icache_port</text>
</g>
<!-- system_cpu_dcache_port -->
<g id="node3" class="node">
<title>system_cpu_dcache_port</title>
<path fill="#959ead" stroke="#000000" d="M446.5,-40.5C446.5,-40.5 513.5,-40.5 513.5,-40.5 519.5,-40.5 525.5,-46.5 525.5,-52.5 525.5,-52.5 525.5,-64.5 525.5,-64.5 525.5,-70.5 519.5,-76.5 513.5,-76.5 513.5,-76.5 446.5,-76.5 446.5,-76.5 440.5,-76.5 434.5,-70.5 434.5,-64.5 434.5,-64.5 434.5,-52.5 434.5,-52.5 434.5,-46.5 440.5,-40.5 446.5,-40.5"/>
<text text-anchor="middle" x="480" y="-54.8" font-family="Arial" font-size="14.00" fill="#000000">dcache_port</text>
</g>
<!-- system_cpu_interrupts_int_requestor -->
<g id="node4" class="node">
<title>system_cpu_interrupts_int_requestor</title>
<path fill="#94918b" stroke="#000000" d="M333.5,-40.5C333.5,-40.5 404.5,-40.5 404.5,-40.5 410.5,-40.5 416.5,-46.5 416.5,-52.5 416.5,-52.5 416.5,-64.5 416.5,-64.5 416.5,-70.5 410.5,-76.5 404.5,-76.5 404.5,-76.5 333.5,-76.5 333.5,-76.5 327.5,-76.5 321.5,-70.5 321.5,-64.5 321.5,-64.5 321.5,-52.5 321.5,-52.5 321.5,-46.5 327.5,-40.5 333.5,-40.5"/>
<text text-anchor="middle" x="369" y="-54.8" font-family="Arial" font-size="14.00" fill="#000000">int_requestor</text>
</g>
<!-- system_cpu_interrupts_int_responder -->
<g id="node5" class="node">
<title>system_cpu_interrupts_int_responder</title>
<path fill="#94918b" stroke="#000000" d="M216.5,-40.5C216.5,-40.5 291.5,-40.5 291.5,-40.5 297.5,-40.5 303.5,-46.5 303.5,-52.5 303.5,-52.5 303.5,-64.5 303.5,-64.5 303.5,-70.5 297.5,-76.5 291.5,-76.5 291.5,-76.5 216.5,-76.5 216.5,-76.5 210.5,-76.5 204.5,-70.5 204.5,-64.5 204.5,-64.5 204.5,-52.5 204.5,-52.5 204.5,-46.5 210.5,-40.5 216.5,-40.5"/>
<text text-anchor="middle" x="254" y="-54.8" font-family="Arial" font-size="14.00" fill="#000000">int_responder</text>
</g>
<!-- system_cpu_interrupts_pio -->
<g id="node6" class="node">
<title>system_cpu_interrupts_pio</title>
<path fill="#94918b" stroke="#000000" d="M144,-40.5C144,-40.5 174,-40.5 174,-40.5 180,-40.5 186,-46.5 186,-52.5 186,-52.5 186,-64.5 186,-64.5 186,-70.5 180,-76.5 174,-76.5 174,-76.5 144,-76.5 144,-76.5 138,-76.5 132,-70.5 132,-64.5 132,-64.5 132,-52.5 132,-52.5 132,-46.5 138,-40.5 144,-40.5"/>
<text text-anchor="middle" x="159" y="-54.8" font-family="Arial" font-size="14.00" fill="#000000">pio</text>
</g>
<!-- system_membus_cpu_side_ports&#45;&gt;system_cpu_interrupts_int_requestor -->
<g id="edge2" class="edge">
<title>system_membus_cpu_side_ports&#45;&gt;system_cpu_interrupts_int_requestor</title>
<path fill="none" stroke="black" d="M336.59,-175.37C344.7,-146.39 357.3,-101.32 364.16,-76.81"/>
<polygon fill="black" stroke="black" points="333.15,-174.68 333.82,-185.25 339.89,-176.56 333.15,-174.68"/>
</g>
<!-- system_membus_mem_side_ports -->
<g id="node8" class="node">
<title>system_membus_mem_side_ports</title>
<path fill="#586070" stroke="#000000" d="M151,-185.5C151,-185.5 245,-185.5 245,-185.5 251,-185.5 257,-191.5 257,-197.5 257,-197.5 257,-209.5 257,-209.5 257,-215.5 251,-221.5 245,-221.5 245,-221.5 151,-221.5 151,-221.5 145,-221.5 139,-215.5 139,-209.5 139,-209.5 139,-197.5 139,-197.5 139,-191.5 145,-185.5 151,-185.5"/>
<text text-anchor="middle" x="198" y="-199.8" font-family="Arial" font-size="14.00" fill="#000000">mem_side_ports</text>
</g>
<!-- system_membus_mem_side_ports&#45;&gt;system_cpu_interrupts_int_responder -->
<g id="edge4" class="edge">
<title>system_membus_mem_side_ports&#45;&gt;system_cpu_interrupts_int_responder</title>
<path fill="none" stroke="black" d="M204.75,-185.25C214.38,-160.66 232.14,-115.32 243.5,-86.32"/>
<polygon fill="black" stroke="black" points="246.83,-87.4 247.22,-76.81 240.32,-84.85 246.83,-87.4"/>
</g>
<!-- system_membus_mem_side_ports&#45;&gt;system_cpu_interrupts_pio -->
<g id="edge3" class="edge">
<title>system_membus_mem_side_ports&#45;&gt;system_cpu_interrupts_pio</title>
<path fill="none" stroke="black" d="M193.3,-185.25C186.62,-160.77 174.33,-115.71 166.42,-86.7"/>
<polygon fill="black" stroke="black" points="169.73,-85.54 163.72,-76.81 162.98,-87.38 169.73,-85.54"/>
</g>
<!-- system_mem_ctrls_port -->
<g id="node13" class="node">
<title>system_mem_ctrls_port</title>
<path fill="#94918b" stroke="#000000" d="M58,-40.5C58,-40.5 88,-40.5 88,-40.5 94,-40.5 100,-46.5 100,-52.5 100,-52.5 100,-64.5 100,-64.5 100,-70.5 94,-76.5 88,-76.5 88,-76.5 58,-76.5 58,-76.5 52,-76.5 46,-70.5 46,-64.5 46,-64.5 46,-52.5 46,-52.5 46,-46.5 52,-40.5 58,-40.5"/>
<text text-anchor="middle" x="73" y="-54.8" font-family="Arial" font-size="14.00" fill="#000000">port</text>
</g>
<!-- system_membus_mem_side_ports&#45;&gt;system_mem_ctrls_port -->
<g id="edge5" class="edge">
<title>system_membus_mem_side_ports&#45;&gt;system_mem_ctrls_port</title>
<path fill="none" stroke="black" d="M143.44,-185.49C134.88,-181.1 126.67,-175.67 120,-169 97.32,-146.32 84.87,-110.94 78.58,-86.57"/>
<polygon fill="black" stroke="black" points="81.91,-85.46 76.18,-76.55 75.11,-87.09 81.91,-85.46"/>
</g>
<!-- system_monitor_mem_side_port -->
<g id="node9" class="node">
<title>system_monitor_mem_side_port</title>
<path fill="#94918b" stroke="#000000" d="M383.5,-316.5C383.5,-316.5 470.5,-316.5 470.5,-316.5 476.5,-316.5 482.5,-322.5 482.5,-328.5 482.5,-328.5 482.5,-340.5 482.5,-340.5 482.5,-346.5 476.5,-352.5 470.5,-352.5 470.5,-352.5 383.5,-352.5 383.5,-352.5 377.5,-352.5 371.5,-346.5 371.5,-340.5 371.5,-340.5 371.5,-328.5 371.5,-328.5 371.5,-322.5 377.5,-316.5 383.5,-316.5"/>
<text text-anchor="middle" x="427" y="-330.8" font-family="Arial" font-size="14.00" fill="#000000">mem_side_port</text>
</g>
<!-- system_monitor_mem_side_port&#45;&gt;system_membus_cpu_side_ports -->
<g id="edge6" class="edge">
<title>system_monitor_mem_side_port&#45;&gt;system_membus_cpu_side_ports</title>
<path fill="none" stroke="black" d="M413.99,-316.37C397.15,-294.2 367.67,-255.4 348.24,-229.82"/>
<polygon fill="black" stroke="black" points="350.9,-227.55 342.07,-221.7 345.33,-231.78 350.9,-227.55"/>
</g>
<!-- system_monitor_cpu_side_port -->
<g id="node10" class="node">
<title>system_monitor_cpu_side_port</title>
<path fill="#94918b" stroke="#000000" d="M264.5,-316.5C264.5,-316.5 341.5,-316.5 341.5,-316.5 347.5,-316.5 353.5,-322.5 353.5,-328.5 353.5,-328.5 353.5,-340.5 353.5,-340.5 353.5,-346.5 347.5,-352.5 341.5,-352.5 341.5,-352.5 264.5,-352.5 264.5,-352.5 258.5,-352.5 252.5,-346.5 252.5,-340.5 252.5,-340.5 252.5,-328.5 252.5,-328.5 252.5,-322.5 258.5,-316.5 264.5,-316.5"/>
<text text-anchor="middle" x="303" y="-330.8" font-family="Arial" font-size="14.00" fill="#000000">cpu_side_port</text>
</g>
<!-- system_to_monitor_bus_cpu_side_ports -->
<g id="node11" class="node">
<title>system_to_monitor_bus_cpu_side_ports</title>
<path fill="#586070" stroke="#000000" d="M460,-447.5C460,-447.5 544,-447.5 544,-447.5 550,-447.5 556,-453.5 556,-459.5 556,-459.5 556,-471.5 556,-471.5 556,-477.5 550,-483.5 544,-483.5 544,-483.5 460,-483.5 460,-483.5 454,-483.5 448,-477.5 448,-471.5 448,-471.5 448,-459.5 448,-459.5 448,-453.5 454,-447.5 460,-447.5"/>
<text text-anchor="middle" x="502" y="-461.8" font-family="Arial" font-size="14.00" fill="#000000">cpu_side_ports</text>
</g>
<!-- system_to_monitor_bus_cpu_side_ports&#45;&gt;system_cpu_icache_port -->
<g id="edge7" class="edge">
<title>system_to_monitor_bus_cpu_side_ports&#45;&gt;system_cpu_icache_port</title>
<path fill="none" stroke="black" d="M507.68,-437.44C523.88,-360.23 570.03,-140.38 583.35,-76.87"/>
<polygon fill="black" stroke="black" points="504.23,-436.85 505.6,-447.36 511.08,-438.29 504.23,-436.85"/>
</g>
<!-- system_to_monitor_bus_cpu_side_ports&#45;&gt;system_cpu_dcache_port -->
<g id="edge8" class="edge">
<title>system_to_monitor_bus_cpu_side_ports&#45;&gt;system_cpu_dcache_port</title>
<path fill="none" stroke="black" d="M500.64,-437.01C499.08,-405.75 496.43,-353.2 494,-308 489.33,-221.06 483.34,-117.02 481,-76.67"/>
<polygon fill="black" stroke="black" points="497.15,-437.32 501.14,-447.13 504.14,-436.97 497.15,-437.32"/>
</g>
<!-- system_to_monitor_bus_mem_side_ports -->
<g id="node12" class="node">
<title>system_to_monitor_bus_mem_side_ports</title>
<path fill="#586070" stroke="#000000" d="M324,-447.5C324,-447.5 418,-447.5 418,-447.5 424,-447.5 430,-453.5 430,-459.5 430,-459.5 430,-471.5 430,-471.5 430,-477.5 424,-483.5 418,-483.5 418,-483.5 324,-483.5 324,-483.5 318,-483.5 312,-477.5 312,-471.5 312,-471.5 312,-459.5 312,-459.5 312,-453.5 318,-447.5 324,-447.5"/>
<text text-anchor="middle" x="371" y="-461.8" font-family="Arial" font-size="14.00" fill="#000000">mem_side_ports</text>
</g>
<!-- system_to_monitor_bus_mem_side_ports&#45;&gt;system_monitor_cpu_side_port -->
<g id="edge9" class="edge">
<title>system_to_monitor_bus_mem_side_ports&#45;&gt;system_monitor_cpu_side_port</title>
<path fill="none" stroke="black" d="M361.97,-447.37C350.44,-425.49 330.36,-387.41 316.88,-361.83"/>
<polygon fill="black" stroke="black" points="319.83,-359.92 312.07,-352.7 313.63,-363.18 319.83,-359.92"/>
</g>
</g>
</svg>
