<?xml version="1.0" encoding="UTF-8" standalone="no"?>
<!DOCTYPE svg PUBLIC "-//W3C//DTD SVG 1.1//EN"
 "http://www.w3.org/Graphics/SVG/1.1/DTD/svg11.dtd">
<!-- Generated by graphviz version 2.43.0 (0)
 -->
<!-- Title: G Pages: 1 -->
<svg width="623pt" height="616pt"
 viewBox="0.00 0.00 623.00 616.00" xmlns="http://www.w3.org/2000/svg" xmlns:xlink="http://www.w3.org/1999/xlink">
<g id="graph0" class="graph" transform="scale(1 1) rotate(0) translate(4 612)">
<title>G</title>
<polygon fill="white" stroke="transparent" points="-4,4 -4,-612 619,-612 619,4 -4,4"/>
<g id="clust1" class="cluster">
<title>cluster_root</title>
<g id="a_clust1"><a xlink:title="eventq_index=0&#10;full_system=false&#10;sim_quantum=0&#10;time_sync_enable=false&#10;time_sync_period=100000000000&#10;time_sync_spin_threshold=100000000">
<path fill="#bab6ae" stroke="#000000" d="M20,-8C20,-8 595,-8 595,-8 601,-8 607,-14 607,-20 607,-20 607,-588 607,-588 607,-594 601,-600 595,-600 595,-600 20,-600 20,-600 14,-600 8,-594 8,-588 8,-588 8,-20 8,-20 8,-14 14,-8 20,-8"/>
<text text-anchor="middle" x="307.5" y="-584.8" font-family="Arial" font-size="14.00" fill="#000000">root </text>
<text text-anchor="middle" x="307.5" y="-569.8" font-family="Arial" font-size="14.00" fill="#000000">: Root</text>
</a>
</g>
</g>
<g id="clust2" class="cluster">
<title>cluster_system</title>
<g id="a_clust2"><a xlink:title="auto_unlink_shared_backstore=false&#10;cache_line_size=64&#10;eventq_index=0&#10;exit_on_work_items=true&#10;init_param=0&#10;m5ops_base=0&#10;mem_mode=atomic&#10;mem_ranges=0:2147483648&#10;memories=system.mem_ctrls.dram&#10;mmap_using_noreserve=false&#10;multi_thread=false&#10;&#10;um_work_ids=16&#10;&#13;eadfile=&#10;&#13;edirect_paths=system.redirect_paths0 system.redirect_paths1 system.redirect_paths2&#10;shadow_rom_ranges=&#10;shared_backstore=&#10;symbolfile=&#10;thermal_components=&#10;thermal_model=Null&#10;work_begin_ckpt_count=0&#10;work_begin_cpu_id_exit=&#45;1&#10;work_begin_exit_count=0&#10;work_cpus_ckpt_count=0&#10;work_end_ckpt_count=0&#10;work_end_exit_count=0&#10;work_item_id=&#45;1&#10;workload=system.workload">
<path fill="#e4e7eb" stroke="#000000" d="M28,-16C28,-16 587,-16 587,-16 593,-16 599,-22 599,-28 599,-28 599,-542 599,-542 599,-548 593,-554 587,-554 587,-554 28,-554 28,-554 22,-554 16,-548 16,-542 16,-542 16,-28 16,-28 16,-22 22,-16 28,-16"/>
<text text-anchor="middle" x="307.5" y="-538.8" font-family="Arial" font-size="14.00" fill="#000000">system </text>
<text text-anchor="middle" x="307.5" y="-523.8" font-family="Arial" font-size="14.00" fill="#000000">: System</text>
</a>
</g>
</g>
<g id="clust4" class="cluster">
<title>cluster_system_cpu</title>
<g id="a_clust4"><a xlink:title="branchPred=Null&#10;checker=Null&#10;clk_domain=system.cpu_clk_domain&#10;cpu_id=0&#10;decoder=system.cpu.decoder&#10;do_checkpoint_insts=true&#10;do_statistics_insts=true&#10;eventq_index=0&#10;function_trace=false&#10;function_trace_start=0&#10;interrupts=system.cpu.interrupts&#10;isa=system.cpu.isa&#10;max_insts_all_threads=0&#10;max_insts_any_thread=0&#10;mmu=system.cpu.mmu&#10;&#10;umThreads=1&#10;power_gating_on_idle=false&#10;power_model=&#10;power_state=system.cpu.power_state&#10;progress_interval=0&#10;pwr_gating_latency=300&#10;simpoint_start_insts=&#10;simulate_data_stalls=false&#10;simulate_inst_stalls=false&#10;socket_id=0&#10;switched_out=false&#10;syscallRetryLatency=10000&#10;system=system&#10;tracer=system.cpu.tracer&#10;width=1&#10;workload=system.cpu.workload">
<path fill="#bbc6d9" stroke="#000000" d="M137,-286C137,-286 325,-286 325,-286 331,-286 337,-292 337,-298 337,-298 337,-365 337,-365 337,-371 331,-377 325,-377 325,-377 137,-377 137,-377 131,-377 125,-371 125,-365 125,-365 125,-298 125,-298 125,-292 131,-286 137,-286"/>
<text text-anchor="middle" x="231" y="-361.8" font-family="Arial" font-size="14.00" fill="#000000">cpu </text>
<text text-anchor="middle" x="231" y="-346.8" font-family="Arial" font-size="14.00" fill="#000000">: RiscvAtomicSimpleCPU</text>
</a>
</g>
</g>
<g id="clust24" class="cluster">
<title>cluster_system_membus</title>
<g id="a_clust24"><a xlink:title="clk_domain=system.clk_domain&#10;eventq_index=0&#10;forward_latency=4&#10;frontend_latency=3&#10;header_latency=1&#10;max_outstanding_snoops=512&#10;max_routing_table_size=512&#10;point_of_coherency=true&#10;point_of_unification=true&#10;power_model=&#10;power_state=system.membus.power_state&#10;&#13;esponse_latency=2&#10;snoop_filter=system.membus.snoop_filter&#10;snoop_response_latency=4&#10;system=system&#10;use_default_range=false&#10;width=16">
<path fill="#6f798c" stroke="#000000" d="M189,-155C189,-155 425,-155 425,-155 431,-155 437,-161 437,-167 437,-167 437,-234 437,-234 437,-240 431,-246 425,-246 425,-246 189,-246 189,-246 183,-246 177,-240 177,-234 177,-234 177,-167 177,-167 177,-161 183,-155 189,-155"/>
<text text-anchor="middle" x="307" y="-230.8" font-family="Arial" font-size="14.00" fill="#000000">membus </text>
<text text-anchor="middle" x="307" y="-215.8" font-family="Arial" font-size="14.00" fill="#000000">: SystemXBar</text>
</a>
</g>
</g>
<g id="clust27" class="cluster">
<title>cluster_system_monitor</title>
<g id="a_clust27"><a xlink:title="bandwidth_bins=20&#10;burst_length_bins=20&#10;disable_addr_dists=true&#10;disable_bandwidth_hists=false&#10;disable_burst_length_hists=false&#10;disable_itt_dists=false&#10;disable_latency_hists=false&#10;disable_outstanding_hists=false&#10;disable_transaction_hists=false&#10;eventq_index=0&#10;itt_bins=20&#10;itt_max_bin=100000&#10;&#10;atency_bins=20&#10;outstanding_bins=20&#10;&#13;ead_addr_mask=18446744073709551615&#10;sample_period=1000000000&#10;system=system&#10;transaction_bins=20&#10;write_addr_mask=18446744073709551615">
<path fill="#bab6ae" stroke="#000000" d="M357,-286C357,-286 579,-286 579,-286 585,-286 591,-292 591,-298 591,-298 591,-365 591,-365 591,-371 585,-377 579,-377 579,-377 357,-377 357,-377 351,-377 345,-371 345,-365 345,-365 345,-298 345,-298 345,-292 351,-286 357,-286"/>
<text text-anchor="middle" x="468" y="-361.8" font-family="Arial" font-size="14.00" fill="#000000">monitor </text>
<text text-anchor="middle" x="468" y="-346.8" font-family="Arial" font-size="14.00" fill="#000000">: CommMonitor</text>
</a>
</g>
</g>
<g id="clust29" class="cluster">
<title>cluster_system_to_monitor_bus</title>
<g id="a_clust29"><a xlink:title="clk_domain=system.cpu_clk_domain&#10;eventq_index=0&#10;forward_latency=0&#10;frontend_latency=1&#10;header_latency=1&#10;max_outstanding_snoops=512&#10;max_routing_table_size=512&#10;point_of_coherency=false&#10;point_of_unification=true&#10;power_model=&#10;power_state=system.to_monitor_bus.power_state&#10;&#13;esponse_latency=1&#10;snoop_filter=system.to_monitor_bus.snoop_filter&#10;snoop_response_latency=1&#10;system=system&#10;use_default_range=false&#10;width=32">
<path fill="#6f798c" stroke="#000000" d="M223,-417C223,-417 459,-417 459,-417 465,-417 471,-423 471,-429 471,-429 471,-496 471,-496 471,-502 465,-508 459,-508 459,-508 223,-508 223,-508 217,-508 211,-502 211,-496 211,-496 211,-429 211,-429 211,-423 217,-417 223,-417"/>
<text text-anchor="middle" x="341" y="-492.8" font-family="Arial" font-size="14.00" fill="#000000">to_monitor_bus </text>
<text text-anchor="middle" x="341" y="-477.8" font-family="Arial" font-size="14.00" fill="#000000">: L2XBar</text>
</a>
</g>
</g>
<g id="clust32" class="cluster">
<title>cluster_system_mem_ctrls</title>
<g id="a_clust32"><a xlink:title="clk_domain=system.clk_domain&#10;command_window=10000&#10;dram=system.mem_ctrls.dram&#10;eventq_index=0&#10;mem_sched_policy=frfcfs&#10;min_reads_per_switch=16&#10;min_writes_per_switch=16&#10;power_model=&#10;power_state=system.mem_ctrls.power_state&#10;qos_policy=Null&#10;qos_priorities=1&#10;qos_priority_escalation=false&#10;qos_q_policy=fifo&#10;qos_requestors= &#160;&#160;&#160;&#160;&#160;&#160;&#160;&#160;&#160;&#160;&#160;&#160;&#160;&#160;&#10;qos_syncro_scheduler=false&#10;qos_turnaround_policy=Null&#10;static_backend_latency=10000&#10;static_frontend_latency=10000&#10;system=system&#10;write_high_thresh_perc=85&#10;write_low_thresh_perc=50">
<path fill="#bab6ae" stroke="#000000" d="M214,-24C214,-24 274,-24 274,-24 280,-24 286,-30 286,-36 286,-36 286,-103 286,-103 286,-109 280,-115 274,-115 274,-115 214,-115 214,-115 208,-115 202,-109 202,-103 202,-103 202,-36 202,-36 202,-30 208,-24 214,-24"/>
<text text-anchor="middle" x="244" y="-99.8" font-family="Arial" font-size="14.00" fill="#000000">mem_ctrls </text>
<text text-anchor="middle" x="244" y="-84.8" font-family="Arial" font-size="14.00" fill="#000000">: MemCtrl</text>
</a>
</g>
</g>
<!-- system_system_port -->
<g id="node1" class="node">
<title>system_system_port</title>
<path fill="#b6b8bc" stroke="#000000" d="M36.5,-294.5C36.5,-294.5 103.5,-294.5 103.5,-294.5 109.5,-294.5 115.5,-300.5 115.5,-306.5 115.5,-306.5 115.5,-318.5 115.5,-318.5 115.5,-324.5 109.5,-330.5 103.5,-330.5 103.5,-330.5 36.5,-330.5 36.5,-330.5 30.5,-330.5 24.5,-324.5 24.5,-318.5 24.5,-318.5 24.5,-306.5 24.5,-306.5 24.5,-300.5 30.5,-294.5 36.5,-294.5"/>
<text text-anchor="middle" x="70" y="-308.8" font-family="Arial" font-size="14.00" fill="#000000">system_port</text>
</g>
<!-- system_membus_cpu_side_ports -->
<g id="node4" class="node">
<title>system_membus_cpu_side_ports</title>
<path fill="#586070" stroke="#000000" d="M333,-163.5C333,-163.5 417,-163.5 417,-163.5 423,-163.5 429,-169.5 429,-175.5 429,-175.5 429,-187.5 429,-187.5 429,-193.5 423,-199.5 417,-199.5 417,-199.5 333,-199.5 333,-199.5 327,-199.5 321,-193.5 321,-187.5 321,-187.5 321,-175.5 321,-175.5 321,-169.5 327,-163.5 333,-163.5"/>
<text text-anchor="middle" x="375" y="-177.8" font-family="Arial" font-size="14.00" fill="#000000">cpu_side_ports</text>
</g>
<!-- system_system_port&#45;&gt;system_membus_cpu_side_ports -->
<g id="edge1" class="edge">
<title>system_system_port&#45;&gt;system_membus_cpu_side_ports</title>
<path fill="none" stroke="black" d="M101.01,-294.42C107.48,-291.3 114.36,-288.31 121,-286 202.91,-257.48 235.8,-287.42 312,-246 329.29,-236.6 344.9,-220.95 356.25,-207.54"/>
<polygon fill="black" stroke="black" points="359.15,-209.52 362.75,-199.56 353.72,-205.1 359.15,-209.52"/>
</g>
<!-- system_cpu_icache_port -->
<g id="node2" class="node">
<title>system_cpu_icache_port</title>
<path fill="#959ead" stroke="#000000" d="M255,-294.5C255,-294.5 317,-294.5 317,-294.5 323,-294.5 329,-300.5 329,-306.5 329,-306.5 329,-318.5 329,-318.5 329,-324.5 323,-330.5 317,-330.5 317,-330.5 255,-330.5 255,-330.5 249,-330.5 243,-324.5 243,-318.5 243,-318.5 243,-306.5 243,-306.5 243,-300.5 249,-294.5 255,-294.5"/>
<text text-anchor="middle" x="286" y="-308.8" font-family="Arial" font-size="14.00" fill="#000000">icache_port</text>
</g>
<!-- system_cpu_dcache_port -->
<g id="node3" class="node">
<title>system_cpu_dcache_port</title>
<path fill="#959ead" stroke="#000000" d="M145.5,-294.5C145.5,-294.5 212.5,-294.5 212.5,-294.5 218.5,-294.5 224.5,-300.5 224.5,-306.5 224.5,-306.5 224.5,-318.5 224.5,-318.5 224.5,-324.5 218.5,-330.5 212.5,-330.5 212.5,-330.5 145.5,-330.5 145.5,-330.5 139.5,-330.5 133.5,-324.5 133.5,-318.5 133.5,-318.5 133.5,-306.5 133.5,-306.5 133.5,-300.5 139.5,-294.5 145.5,-294.5"/>
<text text-anchor="middle" x="179" y="-308.8" font-family="Arial" font-size="14.00" fill="#000000">dcache_port</text>
</g>
<!-- system_membus_mem_side_ports -->
<g id="node5" class="node">
<title>system_membus_mem_side_ports</title>
<path fill="#586070" stroke="#000000" d="M197,-163.5C197,-163.5 291,-163.5 291,-163.5 297,-163.5 303,-169.5 303,-175.5 303,-175.5 303,-187.5 303,-187.5 303,-193.5 297,-199.5 291,-199.5 291,-199.5 197,-199.5 197,-199.5 191,-199.5 185,-193.5 185,-187.5 185,-187.5 185,-175.5 185,-175.5 185,-169.5 191,-163.5 197,-163.5"/>
<text text-anchor="middle" x="244" y="-177.8" font-family="Arial" font-size="14.00" fill="#000000">mem_side_ports</text>
</g>
<!-- system_mem_ctrls_port -->
<g id="node10" class="node">
<title>system_mem_ctrls_port</title>
<path fill="#94918b" stroke="#000000" d="M229,-32.5C229,-32.5 259,-32.5 259,-32.5 265,-32.5 271,-38.5 271,-44.5 271,-44.5 271,-56.5 271,-56.5 271,-62.5 265,-68.5 259,-68.5 259,-68.5 229,-68.5 229,-68.5 223,-68.5 217,-62.5 217,-56.5 217,-56.5 217,-44.5 217,-44.5 217,-38.5 223,-32.5 229,-32.5"/>
<text text-anchor="middle" x="244" y="-46.8" font-family="Arial" font-size="14.00" fill="#000000">port</text>
</g>
<!-- system_membus_mem_side_ports&#45;&gt;system_mem_ctrls_port -->
<g id="edge2" class="edge">
<title>system_membus_mem_side_ports&#45;&gt;system_mem_ctrls_port</title>
<path fill="none" stroke="black" d="M244,-163.37C244,-141.78 244,-104.41 244,-78.85"/>
<polygon fill="black" stroke="black" points="247.5,-78.7 244,-68.7 240.5,-78.7 247.5,-78.7"/>
</g>
<!-- system_monitor_mem_side_port -->
<g id="node6" class="node">
<title>system_monitor_mem_side_port</title>
<path fill="#94918b" stroke="#000000" d="M484.5,-294.5C484.5,-294.5 571.5,-294.5 571.5,-294.5 577.5,-294.5 583.5,-300.5 583.5,-306.5 583.5,-306.5 583.5,-318.5 583.5,-318.5 583.5,-324.5 577.5,-330.5 571.5,-330.5 571.5,-330.5 484.5,-330.5 484.5,-330.5 478.5,-330.5 472.5,-324.5 472.5,-318.5 472.5,-318.5 472.5,-306.5 472.5,-306.5 472.5,-300.5 478.5,-294.5 484.5,-294.5"/>
<text text-anchor="middle" x="528" y="-308.8" font-family="Arial" font-size="14.00" fill="#000000">mem_side_port</text>
</g>
<!-- system_monitor_mem_side_port&#45;&gt;system_membus_cpu_side_ports -->
<g id="edge3" class="edge">
<title>system_monitor_mem_side_port&#45;&gt;system_membus_cpu_side_ports</title>
<path fill="none" stroke="black" d="M507.68,-294.37C480.82,-271.72 433.36,-231.7 403.08,-206.18"/>
<polygon fill="black" stroke="black" points="405.3,-203.47 395.4,-199.7 400.79,-208.82 405.3,-203.47"/>
</g>
<!-- system_monitor_cpu_side_port -->
<g id="node7" class="node">
<title>system_monitor_cpu_side_port</title>
<path fill="#94918b" stroke="#000000" d="M365.5,-294.5C365.5,-294.5 442.5,-294.5 442.5,-294.5 448.5,-294.5 454.5,-300.5 454.5,-306.5 454.5,-306.5 454.5,-318.5 454.5,-318.5 454.5,-324.5 448.5,-330.5 442.5,-330.5 442.5,-330.5 365.5,-330.5 365.5,-330.5 359.5,-330.5 353.5,-324.5 353.5,-318.5 353.5,-318.5 353.5,-306.5 353.5,-306.5 353.5,-300.5 359.5,-294.5 365.5,-294.5"/>
<text text-anchor="middle" x="404" y="-308.8" font-family="Arial" font-size="14.00" fill="#000000">cpu_side_port</text>
</g>
<!-- system_to_monitor_bus_cpu_side_ports -->
<g id="node8" class="node">
<title>system_to_monitor_bus_cpu_side_ports</title>
<path fill="#586070" stroke="#000000" d="M231,-425.5C231,-425.5 315,-425.5 315,-425.5 321,-425.5 327,-431.5 327,-437.5 327,-437.5 327,-449.5 327,-449.5 327,-455.5 321,-461.5 315,-461.5 315,-461.5 231,-461.5 231,-461.5 225,-461.5 219,-455.5 219,-449.5 219,-449.5 219,-437.5 219,-437.5 219,-431.5 225,-425.5 231,-425.5"/>
<text text-anchor="middle" x="273" y="-439.8" font-family="Arial" font-size="14.00" fill="#000000">cpu_side_ports</text>
</g>
<!-- system_to_monitor_bus_cpu_side_ports&#45;&gt;system_cpu_icache_port -->
<g id="edge4" class="edge">
<title>system_to_monitor_bus_cpu_side_ports&#45;&gt;system_cpu_icache_port</title>
<path fill="none" stroke="black" d="M275.75,-415.23C278.32,-389.7 282.09,-352.32 284.27,-330.7"/>
<polygon fill="black" stroke="black" points="272.25,-415.07 274.73,-425.37 279.21,-415.77 272.25,-415.07"/>
</g>
<!-- system_to_monitor_bus_cpu_side_ports&#45;&gt;system_cpu_dcache_port -->
<g id="edge5" class="edge">
<title>system_to_monitor_bus_cpu_side_ports&#45;&gt;system_cpu_dcache_port</title>
<path fill="none" stroke="black" d="M254.61,-417.26C235.99,-391.71 207.71,-352.9 191.53,-330.7"/>
<polygon fill="black" stroke="black" points="251.8,-419.35 260.52,-425.37 257.46,-415.23 251.8,-419.35"/>
</g>
<!-- system_to_monitor_bus_mem_side_ports -->
<g id="node9" class="node">
<title>system_to_monitor_bus_mem_side_ports</title>
<path fill="#586070" stroke="#000000" d="M357,-425.5C357,-425.5 451,-425.5 451,-425.5 457,-425.5 463,-431.5 463,-437.5 463,-437.5 463,-449.5 463,-449.5 463,-455.5 457,-461.5 451,-461.5 451,-461.5 357,-461.5 357,-461.5 351,-461.5 345,-455.5 345,-449.5 345,-449.5 345,-437.5 345,-437.5 345,-431.5 351,-425.5 357,-425.5"/>
<text text-anchor="middle" x="404" y="-439.8" font-family="Arial" font-size="14.00" fill="#000000">mem_side_ports</text>
</g>
<!-- system_to_monitor_bus_mem_side_ports&#45;&gt;system_monitor_cpu_side_port -->
<g id="edge6" class="edge">
<title>system_to_monitor_bus_mem_side_ports&#45;&gt;system_monitor_cpu_side_port</title>
<path fill="none" stroke="black" d="M404,-425.37C404,-403.78 404,-366.41 404,-340.85"/>
<polygon fill="black" stroke="black" points="407.5,-340.7 404,-330.7 400.5,-340.7 407.5,-340.7"/>
</g>
</g>
</svg>
